<svg id="visual" viewBox="0 0 900 600" width="900" height="600" xmlns="http://www.w3.org/2000/svg" xmlns:xlink="http://www.w3.org/1999/xlink" version="1.1"><rect x="0" y="0" width="900" height="600" fill="#111827"></rect><g transform="translate(462.4622501904933 290.09619322707556)"><path d="M243.3 -355.2C313.9 -333.2 368.9 -263.4 358.2 -191.5C347.6 -119.7 271.2 -45.8 251.8 30.8C232.5 107.5 270 187 258.6 254.2C247.2 321.3 186.9 376.1 120.5 383C54.2 389.9 -18.1 348.9 -105.3 334.4C-192.5 319.9 -294.7 331.9 -344.7 289.9C-394.8 247.9 -392.9 152.1 -364.7 77.5C-336.5 2.9 -281.9 -50.5 -254.3 -118.3C-226.8 -186.2 -226.1 -268.5 -188.2 -305.5C-150.3 -342.5 -75.1 -334.3 5.6 -343C86.3 -351.7 172.6 -377.3 243.3 -355.2" fill="#623bda"></path></g></svg>