<?xml version="1.0" standalone="no"?>
<!DOCTYPE svg PUBLIC "-//W3C//DTD SVG 20010904//EN"
 "http://www.w3.org/TR/2001/REC-SVG-20010904/DTD/svg10.dtd">
<svg version="1.0" xmlns="http://www.w3.org/2000/svg"
 width="474.000000pt" height="474.000000pt" viewBox="0 0 474.000000 474.000000"
 preserveAspectRatio="xMidYMid meet">

<g transform="translate(0.000000,474.000000) scale(0.100000,-0.100000)"
fill="#000000" stroke="none">
<path d="M1645 4129 c-143 -20 -330 -83 -449 -153 -142 -83 -303 -234 -393
-369 -244 -366 -272 -838 -72 -1227 196 -382 558 -618 1004 -655 168 -14 408
32 571 109 l92 44 116 -117 c112 -112 116 -118 106 -145 -16 -44 -12 -90 13
-122 42 -55 801 -806 845 -836 132 -91 343 -90 476 2 141 97 216 266 189 426
-25 143 -37 159 -472 597 -218 219 -415 410 -438 424 -44 25 -90 26 -121 0 -9
-7 -42 20 -132 110 l-120 120 34 74 c78 170 116 340 116 518 0 328 -122 621
-354 855 -169 171 -375 282 -613 331 -95 20 -303 27 -398 14z m337 -364 c196
-41 408 -180 518 -340 53 -77 107 -195 131 -285 31 -117 31 -300 0 -415 -72
-269 -265 -490 -513 -585 -126 -49 -215 -63 -348 -57 -262 12 -475 120 -635
322 -389 490 -124 1225 490 1360 80 18 274 18 357 0z"/>
</g>
</svg>
